<mxfile host="app.diagrams.net" agent="Mozilla/5.0 (Windows NT 10.0; Win64; x64) AppleWebKit/537.36 (KHTML, like Gecko) Chrome/131.0.0.0 Safari/537.36" version="24.8.6">
  <diagram name="PÃ¡gina-1" id="Ru2hXGV1R4VPlF3D0_6N">
    <mxGraphModel dx="1885" dy="551" grid="1" gridSize="10" guides="1" tooltips="1" connect="1" arrows="1" fold="1" page="1" pageScale="1" pageWidth="850" pageHeight="1100" math="0" shadow="0">
      <root>
        <mxCell id="0" />
        <mxCell id="1" parent="0" />
        <mxCell id="rEjrWsLnKbSGSk9dJPLd-32" style="edgeStyle=orthogonalEdgeStyle;rounded=0;orthogonalLoop=1;jettySize=auto;html=1;startArrow=classic;startFill=1;" edge="1" parent="1" source="rEjrWsLnKbSGSk9dJPLd-1" target="rEjrWsLnKbSGSk9dJPLd-2">
          <mxGeometry relative="1" as="geometry" />
        </mxCell>
        <mxCell id="rEjrWsLnKbSGSk9dJPLd-1" value="" style="shape=image;verticalLabelPosition=bottom;labelBackgroundColor=default;verticalAlign=top;aspect=fixed;imageAspect=0;image=data:image/png,iVBORw0KGgoAAAANSUhEUgAAAlgAAADICAYAAAA0n5+2AABW40lEQVR42uzAgQAAAACAoP2pF6kAAAAAAAAAAAAAAAAAAAAAAAAAAAAAAAAAgNm7ByhJki0MwPGWY6JZRnts2zbRHtu2hR57Ncba5hBrobOy7Kyq1ihfVKwtVFb3/50TI7Txn3tv3AorRVeu3Oc7/GB196JlKvuI1BRT4xbNuGox7TxLV3YJnDw9wbf/4BTfgUO/egIPH5tu6dyzDxcpb2esVb+ldeDQ2s4pM/TCvoMRNz755D4CAAAAUJzd9vnK+fYdaOGcPH2IsX6TJc4p03c6xk16wjZo+AUakr4wNWvt4ZPqiAZ1vMhFK8XcGrEiFyH/zZNbQyYaFDr2f/i4FJEGtIC5XWeTdcCQy85J056w9h5wyKBJXG0bmZrpP3ikecFrr8eQcAQAAADgyBpXjgYdeeD4yRGOtOwd5hZtX7O06/y5qWFzwVirwW2DLknMrRr9dYiKUohcjFrk5FrRoIxjYekvHRX9v/RpcLEa+jRpQKsew4KaQZso8sl1RVOj5oK5WRueT6x9yTZ01EH6sqUKObv1lk49KhMpAgAAAPCs2ZBkbtNpoGfZym3WXv2usNCj1Ivf/szFqFiIYhUnFQtS/9lhz5+FL/X3YUypZz+bW3f8yrNq3U7n1Jmj3bMX1Ketx/tIqAAAAAAUXr0WbxuRutA+Mv1pS4euBoM++euqlEzDgkxYHLmOVrtiWfgyt+3ksHTt9aKlY7fVeY8/0argrXf+R/5NAAAAAN6NW+4ScnbF+Y48NIG2AM8b6zQS+G9DVYz6u8pUuB4aslhbkY9LFvmUuvnmtp3f927cPNfauWdi/nMv3kf+KQAAAACF19+rYO3eZzitVh01NWwmcJHyr1tscp30Q9VfnedS6IJtRdbaNCbVuUNvJ56zj87IKnj7fDQBAAAA+Kvc8xcpXbPmrqZts2vGlHoiDVbf3dorUUcVF2wjsoF5a9deH9ObkDkFL72SQP4oAAAAAEv3vg0c4yfn8Ml1AgZNArvp993Aekk+Sj17WwRvK/KJtYtcs+Y94F6wqH3g6PG7CAAAAMAvCZw41dY5bdZRY+2GN1mQUMWFvgUo5apWpELkafvQPirtjLB9ZxcCAAAA8C1HenYiXVNwgm5D99P9UX+mDYij0LHWqbFu43xb/0FPCbv2tCEAAABQcvn2HtA7ssdvo8s/C75b9vmXggYOe9vJNGxOyzVn/kF607IeAQAAgJLjpsF4t3vh0umWTt2/4GJU//B8FU6wCmhq3NIhbN622jV7XmUCAAAAxZtj7MSO9iEjL7CqS5TiXwoZOCy4xqpFU9NWn/t27x+S/+Ir9xAAAAAoXlwz5kR5lq7czcfXvMPFqDC8/l/t05LrWOswOONW8MabSQQAAACKB/+Dj/Q2NWn5PqtYKULSDsSNwxoy2jZsYRRydmWQ8AUAAAD+h49Ws49I3cHHp7AhbFStJNA2VOqD1ayjvj37lSS8AAAAQP5TzzS1DR5xnotVS22IHdWsCJloat7mM/rYjt1JeAAAAABHxthxpobNvFyEXKJBA4c9qHRy3QJh09altIV7N5EmAAAAuPllbgXPspU5wSoJrVwhyEh/dxYLWvbhqScDZ87FEmkBAACAwMnTWkfGmGfoIDtmrcKsZRh8n1n7DLxe9P5HdYg0AAAAgHvhkmaWrr0+orM9CFdhHLKMdRp58p54qicBAACA0HLNXdjb2Ki5lYtRhXPA+PGhf8YG8+VaenS/eNitSKX+l55GuL4dWFuXT6wTEHbtySYAAAAQsrZgKl+rQT4Xow6nMPXd7BGbE9MmigZdksjHpYh8Qs1bfFxyIf03eaZGzb+ydO/zjqVbr/O/dKw9+75latr6M06hyzNoEgro/71JnwZ7WvRpBitC9NDnIdOEVehi70t90g3v5m0TyX8LAAAA/CdPZ/LaxFvhEq6CFbbc6rEir08OLtz0W7r1/pwGpDdMTVo97JwwdaGw78CgwouXmwo79ypyq0aXMbdqf79tZNo9tuGjf/HYR2fcbe7Q9T66wLOMpX2XqkWXrzYU9uwf7Jo+e46lfedDdKbpFfo8PjY1a+PmaejKrRolhsUGe00CC4XBkOjIHLvDPXfhfQQAAAD+fcKuvTMM2sQig0In3ZafUs8OF61irT5r7wEfOCdO3WOs32Sse96itoXnLyrJv6zwwqUo97JVzWx9B2Z6lq3aaes/5BKfUPtOsHrG3nZynWQDFxd8+TSJIr24EAxZ9xAAAAD49wg5u+dzEXJW5ZBcMKCBJbdGLKvCGFPqCpZ2XV737doz2//IsXp0e3kNEmLuBYurONKyUvxHT2TT6tZLxtqN3LS1KHIRMta2lNzbk4WsBBayXLPm3UUAAADgn+c/djLToE24ZZBaGFDqafsvRjTWaVhkT816md5qnCvs3JNAJK7w+ntKe+bYabaho54yNWpRwGa25FrphSxtgmgflbHTt+9gWQIAAAD/HP+J02m0LVgolQDAWoAKHTvG2g297uWrtrqmzWxz47PPS5EwRJd9tqJzXWvNbTsZg29jKT3EEMfeznrRs2rtfAIAAAD/DNoeGswn1Lojke3s7IYefXlEU4NmH3tWr5+T/9yLMaSY8K7dUM2//3CWpUPX93ltImt5SqWSFbzU4M3ZNYkAAADA3+Ndsaa1qWFzmyTClUzLBtbp+oTr9IbbFNfcBRVIMVXw+pv3u5esGGMfNuotth1fAjNvbO5On1xEH1anH/lrAAAAoODV1/XmNp1yuWhlqBdgsoBhbt3Rah+VPsmzal0UKSHyHn+yirBn/yhLx24fsFuRIQ5aXAxbRioUnr/Qgvw5AAAAcMtkrmAbPOJVujsqxA/hohRpBc3rmjgt58YXX0aSEsp/6Ehl14w5y+ggv522DUO63iEYuE3N2/BF19+LIwAAAPDH3Cksus85ZcZRLkIWypkfVrmy9uz3infL9pYEGN/Bww2c02af+m4QPoSLW629+r9U8MrrVQgAAAD8PtqCm0dbUaGrWkXKRWPNel7f/sOTA6fOlifwI/nPvnCPZ/nqNHOLdnb2flLoQrMaI1Imepas2Eb+ErD0HlCZVgOjPYuWlSZ/AoBz2qwa/2fvK8Cqarq2xYynrcdOLGwxsQULOwPs7s5A7BbMQLELFbu7u7AzOJzuLg7xr+VzLv7PF1GEPXtvODPXNW8FZ/bUumete93LcuZsK8vZ8y1Z72fOtbJevNTc8flLktqC0R8+FbGcu8D+2E6daW178NDL9vhJ9iTnbsQYD+v1G224mDvr1WuttfMX1TXtDXNB8WbakPPTXOhR1SgoXIoTrxV25cCh1/Vr1nv+eKS0wSXiLuvU44gAQSlHIAs9WcZdewcnb8S0wVyVlvfo1QmAaYi4oXcUeiEVvQdc1y5elqyHBG20Rb/7kB8SfV7h2cMzyEXHR7C8m/8D69XriUCW+cz5spAF/QUeD+yPrRh0OFPqqTNDwdufKdHYTp1pLyxXyYF2hot5w9/FedGtWT8n+v0HHB9trtIcUaKiQKZ+ixuAi5CTqEJVLGmzAsj1fydvxLTpV63LYggJnSasWN0cxUFhabgwUDVfazp0pPL3R0hb9JfIYqpR40aAx/EIhLw/YT1M5NHh3DnnEJMXStOZSk6jDYxza/DwOzgtVQYUBSg7ZgftPp//HR9wd/uJKnoioOBsbBLvlq9kXXok8gyrZwUu5FooG3nF8r4DLwP1xZU817SpRo4NQ0kATkjTtRsqjbv2dE/ZyGkDd3wLMODvIjngzeFvwqV6O1ajzZmBNiwn9YcuaE0F474Dw2VtO10XVautAa8wXvx4uSYCwfDvsbsn+wdoowCrai0btwALHlaedaJBRqZFIoDl37evqHINTgGWtFXbp1CUP1GYUDNvYSDOG9cASzFo2Bn9pi04PldotJn2hQ3BcAWbHhD8LQRXsi49I2wPn9RM3RfQpgte464YMPQSgmScW1ZDhej2XhG8yGUlTa7d+A0eKK0gNDFTMXDotajSHiiI6yzq7Z4cY5MsgEUbbbq1G3x5AbDQg9W7f/P/HR8Amz4UYFGA9f8b9X5UA1V0NYbp2AwtYUhL6tvunD5kS0FmvoS26Jev/tBMnr4LAQ+rFwlyH0pXsFrOnW/iMiT1Fm1yGveGtZN37LZe2qLtU3GtejZB/mLIT/k5wKUAizYKsCjAoi19t1iTOZNiwJATrJZkcb7qlUNH7lWPn/wX819Fm3bFqkVOEiyrJYwgJPYiRqn8Pb3Oq2b2PHfT4WNdoXzUZgj9SYSlK8RBjU704KW8UDcFWLRRgEUBFm3pr5kOhvfFDcl25pkmcN5a4FxlIfdltGmXrlgGGTUIaNkL+cLvQT3FOekq/Hf3fhl5r/4T1ZOm75E08xWg+C4CKvzeRJ4qCrBoowCLAiwKsGiLfvosv6RBU0wVZ1U8VD0zcK3l4mWaospC0y4PXsReuNCZDerppTMdOFQlzSZ7DBv1h27pynLQZ0m8W92AMyKD8Gd8ZK4CJMVdKcCijQIsCrBoSw/NIZG6Qer4KtaI7XjYQFtLEzA3yHz2PAVXLDYdgiwWExiQg6QcMOR0rNWWZtbZsHVHPnnHrj4gQjhf1rnH06gyFWITdGtIzB0FWLRRgEUBVvpstNnuPWgAqeMGJJqzEjqC31FPnr7ZfOZcVna/lLb42Fg3HYQLWVV9L+Iebz52olua4FXNX9QH9N8eiz3rxiCPjBVARQEWbRRgUYCV/hptMQqlm2LwiBNfaw2WKs8KL0fm2+GscdtOqpPEYdPOW7RGkK8Ia4R3aat2rx2CKF4T3g2grC5r01EQmbtAqsAnBVi0UYBFARYFWLRhuYAOUcXLsmVosaTCI8vps/m5/WraYmSKHKrhY46wIEaKl6uT8L5yGq9FQTeEeEiBuJ4qiRIKsGijAIsCLAqwaItRazLJOnW/T7ocDnrG0GiJa9eX2V+/9SD9XcohIzIBGTkbeMxywsHOKazkmR0UhXlbUBMOf2ZQQs6OY4X0/pzieo2zyfsNIs5Zst25m0/q2/4h8qTYUOiXNm0RCYVVeatzBpdceQgPfqEAi9NGGwVYFGCl/UabMeyQH4CQWNKbDDWBgONlhuLRvkSAws3bbvKuflWAW9RbM2vOZnmn7tfFNb0i4dvM2IXlq6hBxPSBcvjoMOOefRPUU2b6GHfvy81hEe2/pd4tvQwbQkZDcsE+aev294WVPeU4VijUbIbLKkrartMd9ZTpm01HjvVXDhtV0/Y4gghfzXT4aA2xVyMFG9mjgn+LxkPNrRkUYFGAlW4bBVgUYFGARZtDKPpD7t//Gur4kA4PobI3gJrpDH8CHpDsmjnzeyoHDw8XezXWo5fka/+fciQAXBIywAR5C8WjGKTcr+89ADBzLVeuFWON97RwSQHl4BGT4SK6CQWZ4wX5CuOY8IL6lkiNIVv4BjT0kXkKxgur1HQAODwNemEjrbfv5mAcZIUf7Qe/HweduDQHgDmx7eGjvBRgUYBFGwVYRDsFWLRx6EXpGFmgOBhVshsIQYRi0PDzsUpVFobH3wSI0zeFlWvEovI8gqpfIdtHAsEbDSmE40S6xStmRn/68gexuT4YnlW3LGiMqHb9L0LQUMKEArxwfgWYINDCfy31afXKdCC8h+NLpBuTY1RPmrYWS7uQT3IoheKjsynAogArXTYKsCjAogCLNlnHbvfRe0J6c4vrNBDbI54x5iWy3b3/u6xdlyBhhapYvxDBR6qzGgUFS8TDfDzWLVlRn3EB17dvyykHDD2Nsgh4EeFFk1rlexw3eN926tdvKsTUOMEzlk/WvmtE5L9k+VgI4oD39Tr6zbs8FGBRgJWuGgVYFGBRgEWb6egJ76gyFdFQEw0NIqgAb0s/xsKar98WAbByCbxVCKwYJeFjhqO4eh21Yf2mToyBlms3GosbNP2M3COmPUEIhAAQPdJMD6jI4Hh9wMNmxvkl6MVCkBhr3LlnKAVYFGDRRgEWBVjpBmDRZgo/4ibr3P0Yae8Vpv9DNt8hKCDNSCgr+sWrwnLwumGojBQw/Don5So7jLv2jk41WLl0pamoeh0NZugRAyqYmdey7SsAWeUZCxVOC1hFOqsU50Tu1+cWzHO2lI+UAizaaNOtXteGFwDLs060wq9PyzQFsOYumMMLgDVw6Fn9xs0UYKUPgHW0lrh2PQ1RgAU8G3Gdhkrbg0dlmRhzrEb7t7x7r1sCJOQTJmLjvMCFpdUGzG2b0vHan0bUFHvWkSNQYaPen7RFm1fGvftLMCTd8Sf8vXdshI8NodsapXykFGDRRpthxy4fkKGJ5RIoYKUGUc16NtDVa5TGPFhzsAA+pwALHBGKAUPP60O2ZqO7OX3UopsfmacQWe8VhNt0QWtmMkjA3kIerDh7KdRs+kp+l9kePy33y56rW7fzQujuSWQizxVZ+QPloGGnYlVqRl5B2kXLemCmJV7aJIEsyE8cTvkoKcCijTbziVN/KIeO3AVhfTPsG/Y7SssUKWkGL/pmh0D4W1oCWPaI51Uk3i0juJo7/F1hhWoy09Hj/g6x1C2Nb0XadIuW5ZI2b/NJUKgkWY9K205PzecuMFIKB2rYdUZDz/YBBRAKAGD0qVij8ZdeFpoZAWuJEsWTyDJEDplhx+6xDEw5euAyK/sOOkNQgBT5eSg8q7a/eJlKoj4FWLTRhgLFsG9Y7yjmDGc54a5PSwALGxRzzwKPPU7mDudN5Fk3vYQGaTNs3toW0+QJEtuxxxm27+rBSLhKrsgjbd3hhZMkzmp3gjobCH12SXaG49Nn1YXlqkRz4a4XoJu+dn1R9Ju3RZmYe8vV63VBoNUuIPUtzlCvavSE6RRgpX2ARRtt/AdYtNFGsClHTziE3iuSxHZ5j1637E+fMuK9Mu7ZPww8M3E/qZVIlozdzf+2Iwpc3z9psSaTm2r85H3kvD4/z4TE+YcizsFM7RfV2In7YP7JaqT16nfNeuPWbxRgffNQSSsAizbaKMCijbboL5F5xTXrqYml4OMBcveINWzf2ZOR0ODxUzll3Xvd+bmBJ08it5y72OKnxjkktLaoppdWwCFpEn9bXLeRPPrDR0bKANkePKwWVbqimRTAxb0Ic6bXzl1QkwKsb7TZeAGwaKONAizaLNdv5oZC+KVVw0Z7ybr29BGWrdQD7il/mN9EHdbZX9axazPg19bTBa8uZz57Pp9rhAe37uwNGkcxMAHEjLusfeeH9mfPGcmGAK9GHUGJsjGkswaTwxVSjhy786fGed3GyZF5C3Lt+UBPVoxu1bphjIRolcrM6ikzdkbmLkjUi6ULWj2RFwArdLs7ZFB+RoDFZco7lEUqxsHn00YbBVhUI9MNkrsqq2fOHiCu23Cdou+gE/Lu/g9ADugjPN71IMfhAEfKDx+Iouq1Y+H/a4DHaqSsS4/HkIRxRubbfoNy+JhRlguXvOA/z5iuJi0+NtYNwj0HCGYPIsBCUdEujBHyl66cieCGU8Di/C5Jw6ZRMVLZX0mOdeWqHIrBw847S81w2iNzF4hXT56+Oz4+npGsFKjV6CWqUtNAaC1wfjEMewfmMAvxl9jZC+01M2av0MwKXKYJmLP0mz5n/iLVuMlbRVVr6jhNeS9WBtdvsyZw/mIcV1rq6qkzgw1bd4ywXL76V6qlWQymzMb9B/tB7cpHYJzFMDeMd+AXiqH01E3IxGvOiMf39p0swNnsoZ46KxjnwyX6zMAVuuA146CqxO9pEWCZDoaX160IClRPh3uBzXnDOyhw3lLziZNNOK/q0rpDCf3q9b6qEWN2ATD6KKpWywDZjfEIpLAMHdJe8NGZbIFvTLpy1tLFCBTiDlx/oUdVlEAyC8tUlMr7DAwzHTvZTdHNv7T1+s3MaRpgwQEoBXX7PgsKEnqZw0SCW/CZ5cLFPxhb9PZdLkclDmdyQh4X1/QyGPeGeSU5v8tWFoKCzDpBokuEI95Y9173wWjkYmotQKflJEGZDDzIMdbrN0oTTmevhSFs5CAiWEyqc+0xdYZOcSxpsqNWnaLf4LPggXZLZViiLqxFrIDwHYAGQNLYRwGPwzIMSOBMw7+H8+AyHTm97uXjAVyPTmMAC+VofkfvDAIATuYOwIukUTOFfmNIRbYxge3Zi9zyrn49VaPH7RB7NdZ8vd+dAIpY1j7+TfzbeMciCMtfDAGXVT1x6iGwMQOt9+4XSJMAS7twaVso6hyHH0hIURxf3YyFecD7kllcv4nQyWfithcvHS+sWD0WwjYDkxovhEVrOQEIPzxuTZpL1ZOmV2RQzLAbhB6JgQ/8u1AMewJRgHX0eE8WQn+04x4pXTHW/uJV8VSBlaDVgZg9zMZ40bBo5ywYnKoyXlGi7PCIfYEAy9XWW1i2YjxwcxakNYAF4CqfpHEzoRPEc5KpLqpaO07etWcb1mgQGzaV0AbOD4R6sC9BoBY9VEhL4JTWEpm30FeQLvPt8FY1btI6y6Ur5dIWwFoetBQ/ghQJXNKkhdi4Z18ZpsZrf/K0pLhWfRVufF5cIFC3UdzIJzBJ433ydAdnCI0X3g9IZrDKu/nVZQxgbdmWWVKvyRe8EEjtIXhNXSUKsI6d6MLRGrmgwa0E2awLh6dmvaS+7SLYOv9YfkszI3Cb/dHTTCk3XCE1JfWbYIUMlwRY8p6956Y1gAW1E/OC0OgXTgGWZ91oGEdL4hhg8dLyEJJcDhQILawZem6ZXRMGgBaOCddLWK6yXRMwd5NhQ0h1vmMr1DPKKevQ5WEUIeOCbj4gsYUzOWb7o8eluAdYiQ7D+iSJgYcOd+fNWJ2AUFTJ05fRl0/QmjkoA0EOpDcXgLLyv2kfYNGOZwFC/PtTHL54+LiisHxlB2sGAPaFpJFPlOnAoYIpHTN48IdElSzPK6NFARYFWHCn5lWNnbAAPHUyvL9xHdLCnsKxiqrVNuqWBwUpR4zhb9IPaDi5w6DjSE0EEuFMYYfapXOAhRtz3Q8yCEfjYeHRWDFU2IlRgHL8VHVhhapmEt+JfxMOk007d2FbCrAY7E6+Axc8QFm7zhHR7z/8mUKwMlFYpgKrY0eQb7152yel+0szZ8EGTDDhwBglmicKsCjAArHvTKqJU3rAQ+ct/k5apEcg/xmpN+B1E0EiwnC4w/lHhjfu2NOL1ObGhRPXayKMNVuyMQqwHjwszSeAhfwjoUeVoKTBx8mOaLx5gv5xrA4oQ9OcyTUB45MDPJVnkcRM6sWiXbJ8DgVYzM2pCBIvwJvpYNsA4zxLGjTVQUii3i/r9b19mxGSNM6yzWVCA6SZPS8oZeGX5XmAz/OYKx6mqFZ9GQVYFGBhwwaZvCWgfm8Yzjnua1yjtHyPYWY1riN4sg5Hv3zDL36WYuDQdaQ+Hi8UiJWuZXrMMUJhPnGdBgpeGERMLy1fBbMkJyUZhj19thN4jPjDwarb0KjoO7Am84XCg2ZhIW8SB1YAHEHV6PFHbE8jslKAxczZhMSMI2LPukq8yFkXSy1aKh5CE0N/WYcHuJzSZr5RmPHMOij08X0bFxObOQX8lqrwCGMfyCJ4aN76NYC763hPUYBFARboXbaWNPR5h+efc2BFoFKMpIH3F8jW7c4LcGV/+twNCOjPSBl/zPKxnL/YgcTYxfUbf+CDBwsPAVwQMerpAT2S3NSh28uCRENCGJZr5XnIZvoI0hHujHtDd++rC55FPRpPpseNBhW4gq8BsBegACv1HbODQEl5nryr/00uzhGGy0DvZ3P0mzduv/j67uGsacrBOfe0m0+frfXrJb32DRHA5c/FHGsXLkGOSjiuMQVYLguwkLeYSb9u00xRxep2jjPaicuqoJg2eJuXx+r0WbkFWBHPCoPOhogIwIK/CcRQoenwsRIkxg4emN18IOShUQZvmtp69Ub5JNWKe/TOA4KFn/Ew88GwKvoPuWx/+oxx5WIQW80qbd7mJQnvAgBUDG1aAWBVY2CoFGBBKFe/el0gFHifjlpFXAB9WaduEcCnypX8YukRGTXzFq3HrD5OQhEly8arRo6d/6t7CwBOGN6xLI8X5zgGlLE7qiZN24W/TwGWSwIsrNmbUz0rcDPuAfybrsAtxW8FD/0xx4ePebnCVxjS8RbVqmcisYHwElSPnXTYdv9BJgJDR6/QcD4Q83AhpU1bvox+8y7jDxTCM4FY2h6UwuA6Xo0IH+LvwcQKhg8aHoIxcSJzDXvKfOxkD8YGSwFWgOnw0cpo3NgOFzh/zwEK3+WSDbCePP1H2qr9C67AAp5fRf/B52PF0mSX8oiz2XPCA0zKtmFDL4WsbcePhpDQ/FCO5AD+PgVYrgewNLPm5Ff2H3wcbaWrZbCiQKyyz4BLjvcfc3PEvxoyJqo0mWwcPOCq4aMDiAmird1YHOT6bZxvGshkgLIGi3/6ijgQPgjCBHEcxr3xMkFisx3AqQ+xWlWHjnTCNSFlNCC0uYChodIQ4cpVc/Sr1v4Ghvg5F6AF19O4/0C/ZHvcHz/1QkPBabH0+k2Vho1bqiZ7X4UfaQwlQLDGK+vrC4+64zgG4KwddT0OFgVY2gVLCsjadbnFIbji3qGAj6JeAy463r3PxTrAUgfMXR/5z79EyJWiGl429dQZxBRooexOVig0vAtRKrcE96oWy5WrFZKhN1JE6uP7CT1InHrb2nV+EBMZRSw2Hf3hUxHQKLISAZIAgBR9BxxXTZjMQB1F6sECD/bC/0jYy1ZG5srPSXhdMXjEgeRLHSychwaRywsbdf2wBmKyxxwwN4B1qQQ0pu7lEUCPwTGAKvdxCrBcC2BBzct/FP79LgkK8i5LkBNZGJiLq47IKPbChdFv3maEAs/h6PYmIgzZtEWkPSIiP8FPQIX0lkBoi+Xq0kXiqnLU2H3JflEEzlscxWFaLK6LcV8Y0QwLIBfmlLbpGEECrOAlLK5V75OsbSdmws4UYC3CbzfuO9gNwrpYKov9Op5ejcRx9uhk8QHB2D3jeo0E+Yp8LZZuuXglWWFC5ZARp3CuWTfMVWqao999KIVjAABBAZYLASz78xdZION6Txr2XBGhLCkHDj0TZ7Wxo5Vl3Hcgl9yvzx18kZFg8ss697hH+htivgjcVMPHHMTf4wCsoJfOAK/ZZMv12+7eKwDlMqLYBoSo04UprEC2v21/EpGD7L4Kywiexe0k1sRZcd1sf/6SCXcvBVgrgr8CLMvFywUgs/QDhOw4qLVW0wpnqOFPz86tu+XENbz0nAMs1Par01AEtQV/+hqG8GdxqW+H92zPKwICecduNxLKCrV2IQ8WBVhYW3hl5L9F+ei54ramIXiygJO2BaIsWYgDLIjPl5b4tIoSFC5FYGOUwYr521nxxL1+U0Zc00vFKocENy4ALEiBnpsCjlIfQYHirF4oODeg1aU3nzzjww54DxuJKeJEAFaFqnbbvQcMZhJSDxY2RZ+BJxAUc6Eyrp23aNpPjcaipeOw4gQfXuSYdQmgtMVPeaLBazqgkCsXBHeo0zYjg7NBtiYFWC4CsODR1B8e1EnMJwVZ0OM08xcPI24EQTagOmQQGvFFRsJjol26clQGlpr5yHHUxonBw8KKNwilDvoOugQ6GynyBmlmBGz6r5gmCy8Mp1qvevK0QNaqA2zf1R5BHV6ujF/W5SrH69dv9GNgmBRgrVyVALB0i5ePBDCAc8y66x7CGYd/tDaxJqObauS4I8i35EsauGro6E0/BVjrNwWyzW1zlieL1W/akvAIARFkCrBcAGDBw7YGhIblP3A20A53POw3M+iC1SRqBIH01RQXghQIMZ873yoDi007f9FsPKQIGInXUWvV7oXj85eiqSgr84fCv+9l9GSRvtzQVawaP2Ufm2uhGjXOEzTQVLCZCVzWleI1M2aPZW60NESIzXL5SinIyrWwbejwDMg6dH1h2rM/yULKulVrS0pbd/jg1FfjhTQLCDS/jRFLsvyg/mg25eARp9n2CqL3St7F77Fu6cp/KMByHYAFj/2c8q5+95z7jfaf2fDO3R85PkeSyywEPaFe6IkhdajMJ08VZ7Wm4u69WYB8ugx/mwhwRLAC8wWcighQwC+VyuFinLwIFLy9jd4lPEgkCMRIwleNmbA/RiDMyeZa6ENC0SC+Q4PI9BqgrIjcv+9SZkdMARY2WZtOd/CBwq6BK428OrvpwKEmP9Dy6QCGMJYvnBIYCxo+s2HbrkZJUgEOHi4irORpYl2e4Z/8ULNzxUocAwVYrgOwdEGrA5BPjc4NCqJ+uifxIYIUn/nEjKBhx66xWMqGyIGqWM0IxYT/ysBBg9fuWJFHVT2T34aGF/WulMNGnbK/eFWCsbEuC/pTPW1mKCJqJkEhvGKQc+XQrgheHCOSZGJ7DWx37vwBIOgmrgGB8AeW+tlEARbzAEu/YfPkyHwclHTJVSAe1KZHfxeoHD3upgmcv0GQrzAfL+jApMWFz7fnIGkAQ+gO4979HSjAch2AZT5xqpqoWi0dPqopgEr+ugsrexpBzsKDDBBZETwPDTGRAqMt2z6X9+73WwaOmu3m7SayLj3vInDBTYqHN2VVukvjRYqZTmYokRFgf/7qD8bH+vBRRsPOPWPFtRvI8bfwN/G3U1ZA1x3BFQKQ11BSpBtX8x9nMGRSjhh7jJByPYLRixRgMQ+wbA8e1RUULc26pwgLhKvGTdoHAriZEgGsnXt/kzZp8QEvRL7NH4QAz1sfPPwuD1M1bvIqPMssh1vx7L+DNP1cFGC5BsCKVWsyy/37haGto8ApBWLoo8YeJcOTmThlK4anCBg/PExX1VNnZsvAXcNsvb+BxDsVdJOiwJuDXiicUDzIPwUpGFrDfw2vAoNy6Kgw+7MXVYmH1dZu8AABzVAgKWqRZ4Rj/SlRHMcLGU04XmG5SvFQaFkJ2VaLo9++y5+B46YcMnIXCYCFqbbyzt3PUoDFPMAynz6XS96910PWL2uUPqjXJMoe8eLvRJo+Dx578nH+cK/AeZNbb9z+7gtY6t3qKduGGUPyUKP1CP4+BViuAbCsV6+3grCgPQVgnnacM9DRtFy51oIAwJoaSgJgITBA3g9ksaAQH+fNdPxUDuBmjQTS9QlZm45fgBfx1cuDGUloZLAjtwplBfAyENdtaAS9qLtAZF9tvXW3KtvjtZy74C5r32UevESvSJq2lGPWnCAfjjPxeBGIwQUghvFeUAwYMtn+9n2hDDxpABTXYziPcWAAYFLh1+cWCMYxqWVCAVaCUOzctZjZx4WhA30zz/8dD4bheGo84A4pEA+1HPsn8krff1gGHnYaQdFSbGcPQoZtSH8KsFwHYMm7+18jEIp2qZJhyqEjT0V//JSDaYC1hRjAGjXugH5DCOcAKzERfl9ZUa36bRX9h4zWbwxZCB6u//ryoMXGHbunArDpDi/AevaHj//meqyGLVuzahctqy6q5NkFym1M0a9euyhhvMCtMoRsHS2u36QTlDmpDK983s21vEevaQgOmQ43ITiGdYqwRzxjdI3MR493dUEdrEQ1NEGuoZuoYrVo1snuqIcVOH9WInDQqdt9vhoQvD9BYmJvIu/t8NFDICOTXc0uBDIeVa2QoVyAAiyXAFgoZFsXPDBUUDS1STaVa1i0S5bXZ9QAytp3voV/nET5GN2SFUszuHSjDUjuU4gBrA5dn9pfvGQ0icJy6kzHr54bDBEn0b+elxL8IGgKUtm//J77ux4s681bRSSNm0WxraWDvyfr2O3aN97n8COVIHSoQjFkvoYYwFMlsd2++/s3AKv/4C3oaWV3/kphePA0/j4FWC4BsHCfHaOaV8xgFohybWZWaNS33QMSAAtdbvp1G2ZRiOHaDcowTU1LACtGIv1X0XfwVSiDYhB7NdaK633bwVuoEdWoq8eYPacvRgxj12mgx/HguH6147fBN+rB6D4Esb063398dT2GHiy2AZa4obcw+u37fxMMyNBRI4WlKxAwvszKhpiPn2r5f4rQ/wUG8TbbAAspA4bde0dSgOUaAMv28GF5qOMpRy8qr86DU9gaKS0YEUAPG3bkdWJWuTOJi18AC8Ysql5HE/3xcwHmAFbr9veJAay16wPSEBagjQIsZ7rz6T9lPXpXUfTqVxkutUr/t4OBqARJCO2hiLmYy1cjXmCQIdta0X8wjuvXO35bz95VDNt35Usyw3jtxkG4bqwbk2q1bdq5C9riGAD8ZVaOHh/GcKIEEb055ZgJCbIhphOnakPIwcRm1iMCAFHF6jrbnXuergGwKMDSQykkDPPzAazgGDDBQujugfV5JZARvN185lx/SJjxAWDlDXe2t2HjZl+gvcxAxw5wh7F8FAIwXsk26DduGUoBVkKjjQIsdpt+89biIEHymctXo1PNnmgyQ4xMXhg8MzFsfxe+cqEiwzwcg3HrzmLSZr4CzJLltyo07Mc2HZ/HKBTZnNnLg1HXi+0QB9SSvG65ev1PCrDSP8Ay7tr7OyQ1XcF150OYHNdY2qL1G8Om0CGQxf5Dbqy8m39mAFq1gEKyH3iKVr4oz+M9I+vU/QZXAIuGCGmjACsktLy0eesvXLvlIXznTjST9frNLGBwrrD9nZjZCwTxYzgGSJ1u+t/lW5b3tc3EdRvpIdnEC8cNXI4dbBsNDEdqFyxZgr9PAVb6B1jaOQs8oOg9Vgng3OuDmexS3/abLSfP/PvLJeOuXGsDFT9eon4b7hOuAZakgbfEdu9BMWYAVpsO94gBrNVrA9MdYqCNAqxNW/gAsLC7E89i3bxtMpL+2eZhQRH6zyB9UAjKvcxNK+KJKJSqHDV+Ms4b1Cj8hIaRRSOHen0WEGltRgFW+gRY4O1p+W2G+bbhCKq5zr4DkBcLiTIjUnWnrt9UWNF30Bm8UzkFWTjXFavHqsZM9GdICHLEIRJcEjSA6glTdhp27HbjnUxD2IGMoBPjoew/pAFsju5wqP1hUf2BSOsHSLqlds78qtGvX//Nl/Giy18ze141WTd/bxwnzK8/jhmkG7rJuvt761etKeeIjMzGR4Cl6DNgElGA9fwFyXWiAGvTlvqwzyysKqg7qyeYw4+0glfxY1CVTxMAC8sLgbDuSfuz55g2H8u2VASEUrHwdE4KsNInwIKxfQOwlIOGHcAxccgDxXWNgRJWkxm4arAc1j/ADb3B9b2KD0qQXdnAjA4WpCW6gNBoQrq3rF2X+cCVuCBt0VYAZWlMUaU9Eow/XIpYDgcq5DeXwkLflbXpsFMXvKab5cIl1sELLHBGKFzdStLQZ428S8/bMCYZHrJvLqwyFb8ePDD2kcC9uCLr6rcMwFhNPgEsyLhbDTweIpXQYV4exgjFOSnAItawvlkeEDF8xDbPA+cWwQpUX7AyDc7JyjXUl6knT9vBNncNf1s5cOguXDPXAFjUgwV1fr/gf8fVemI2oGrcxHDH5y9ZmbpvQPOxrMizjhTXg0u5BuS2gd1PfZk/ZPrjZUbogjwGgpiZuTbyqrET6yv8+50VVqxuwFgxxnpxfF8PTInEmxk9eoJ8RTC7AUX7YgDcvAbi3jAgFf5D3Hiv2/i7avQ4P3iNPhNVqm5HVWZnEWgc23df+vgtmEmCABEzlwB4XIVCr80s5y5m4XruwUDujCpWhgiAl7XueJ7s6CnAwqboN3gtJxmT5I0tGSBRoZoJzmIcq78L+lemA4c6UoCVjgGWX58EgGW7/6ASCAHb8L/jrESUZ12Z48OHYoxHmHbsHgB3a6LzwypFoVW7LwAeSzKAGJcuQcBBpNhzizYvYFNwVuzZcvFKUQBXmwEkxSIJNUXaG3jg4VsQ5Mg69XhgPnvel5jh3rC5ARzmy7h58Td/ebxOwIUbBC9c+PZwy+WrVbmaf8enT5kUA4eGI/gjdMgvUIBFvmnmL+4CwD3aCZRZ62nGc8UtMMTfQ2kLjW7pityuAbCoB0u/en0PsGtYJYCz6gWAHeaTsRuf/5D37HMTedxc6WEJy1e2ahcurZ16jsWOXWPR1Ufi0IOQoQhI9H9wYQStN241hVDgG3T3MYXy8W/BprYpBwxZDtlCjIY+Ddt2jBHVrKfDTcXUhYbZWCBEKVVPmOrPxRpEv3yZXdFv0NXIfATCS+DZA6Xx7RRgEW9Yqf9POMsyfpYQov1rqGbClH1wl2d0DYBFswghHDwrqmwlnFdO1hJD95Zz50sQ40nv2dcPvMAxXO2HyFz5463Xb7ZL/YfsPzBIQMIAlvjKaYJB3irMuufq2MmuAIQsJNI+0cigh0g5ePjhGLWGkZChbnnwIvyb0AlkNhXHw2ADQbppcXYHq+Fa48HwQlD25BmuAwnlbHnXnkEUYLHTFAOGHuMnwKI9MnfBeOCXDsB1ogArHQOsPgMSABZIgoTgHYjzyoHmG/KrD5sOHyNlT1BgOL+kQVMR3rFcPVqMu3aPYqIYbxNiNb4QYN2604BN42c+eqKzqHwVA1HOCHqH8hfF6tsnrZeu5kwVuFq2cgFuIqIXizNsCPyuCWyuhXrK9GrgZZJjuJKAyGa8etK0yRRgsdNMBw73IvC9tDNRWsirkRKMXTXXAVg0RCjxbnWMq/OI3h392g3jSd85QDE6xxXHDJ0CSJ9K9UdA7N4L0rCJxHIRYOmC1oxgywjYHj2pA99iQgI0GxcG/o5y0PDgFIcFQ3dMjASkjIebFb2SMhXtuoVL/NhaD1nn7j5wacbhIWH8si5XGQEjS99CAZbl/MWSIiRv84p4TjtSCqBc0iXHpy+ZKcBK5wCrR6+vACs+Pt4N6nOeQQoIF/xCYWVPB0hEtCHO/ZwzfxpX5wrvdkwATL0O1tAR5SWNfOQk3P8IsBQDh7ESxgE9pN/B6D0TFGTP6DmBQ5zp2Imev15uJbQxhO4sOO9sonJx3Yai6FevK7CxJrrV64YQqSGHh9yjarTl4uUGFGCx04zbdmZTDR5xHsMDFNjwJ2MREw/Uk6Y6ycauALBoFmH0m7e/Q6mZe1wI8KK9kjT0Vmmmz65N3Gt+8HBn3DecAayJU0NTbwSD1xQCwcYXCExILAYUdbzMijFfEbyUi3pG+JtS75Yfo98nP101zmLNDAfkgdPTxmoHwIPIfH+MWp2J9JpA2Y7VmBhABmBVsUD4OR8FWOw17ey5UyN5o6pOOxpeACV286kzdSjAogCLLeAhgbtPv2VbOfIqAJd80jzAst1/mA3qfp0ikRIJAAJLXnxyREYR1Y+yP3tRWVS9jhJBIjfKrwXidavXJruwNehpDf3KeyvORQbIfxIa1ms3GhMFIavWZQOX9g0SXDg8dKIqNUVw6WWiAIu1hvX1GoOQpokjQ0N7YlCA3oS3YIjcWARYFGBRgPXZsHUHeYB1/kLzNA+wsGmmztwExDUCHix3CEk1MOhWrGpEDFy9fuOmXbpymYDdemmJNL/A8Eii37wr/HMw+PxvWeeej1C6gMv4sqL3AKIaUjEyRT6I1euJHBCYb7hszqhGjXOjAIu9Bl7aP2HvPqReLH50jBBops10ckApwKIAiyWB0YbeSs3subWJA6xLl33SBcCCGneTkS/F+McU/yp8iWx8YkR38+mz+cV1GsiiOH5Vo/cMUP3gnxrntRvbCctUcOC8cPnyheQGk/n8xSrEDse5C81JfSPOtSZg7ir8HQqw2G2qSdM2o2eaexFQ2tHAWm/eauFaAIsCLIdA8DsIcd5F+gVHYel4Wfsu7UnfNWBPe3MKsCZM2cpMwefR47uLqtaKIWEQI3MXiFfPmL0tRqnMSARgnTrbAS98PqRLy7r0vPZDD8Db924ANoNQt4ZrcizOGdR9mkcwnLSU1GWJ4WzT/oMDWUdWFGAh8bQVZHDGcZ5NSL1XKLT7GUqm5Hc9gEVlGqQt23Em04A8XrBjCRpR3NsQUjINS5Yy4204c85DUq+xAg8tCSQoa9/5tWbOggIkFgH4YyG4AbkHWKUwQ09hfxKRJNkdxNn+gkvuqZOXxHnFcJi74zEiMeP1CmNNZjdZp+530dNEBBzCngLuYD2XB1hFS7MOsBzvPvwlqumlcJbNoZ1DcVHNrDlbbRHPMrkIwKJCo33/v9Ao2JDjXO09lBZST5hy0HzoCDGh0ViL1U3WuQfaEA6FRveMY+JbUFcjIxQ3fEXIE4SbN1a3cnV9EgshadriJQJDXmT0VK1lh/pFSbpOzSdPl4KLJpbrsSYUS27b6TUovBdhPDx49VpZFD9E0EmkEKdPKwEItBZ3aYCFRH/POiU5KZ4+YmyYoFDJNC1vkJY9cDh21LXTb9zcD9fD9QAWLZUja9dpJVdK7rhGkFSm1YeEEqvSYjp6oqq4dn2N04aw3rG6jW5lMHNaX4pBw/YiKZ2UlIF2yfLFBGqk/QUlA/hRI+1rgcgq8bLu/mOTGi/ICngn9l5xSMyv08AI5RdqMR47D90+GteExGUpgPCgctioM6CBlcOVARbuI+ujxx5cfL9h285ebEqiENDni4NalrFplUeG+w4MvsgUdqic6wAsCrBgbAkASz1x6hgI1eO8cnX/YJhwFjGR0cB5c3Gfc1Zr0aOKA0Akc1ESQGujSX0MbhBJo2ZvjKHbGc36st9/UBqy99S8SRt390AvVpJxW/OxE50QePDlFQyq9w7gcTRlWDIjK2T3HY0kktXp5PRNnekUr3VdgIX7CNLzW3Px/ZrpAaVFteB1SSY0T/5h4dVIpJkZuJkF7iaxB6u8q59TX9DVABYluWMzHT7qLaxYPZqr+cK5AOfGJxD4ZjwCYoIathil4KwOIUZJWrb9DCF4xiIEmPpZiRjAQu9O2UqxUG6jPqPG/NHjUgCwVLjYPBL/W5/ky3/7roE4Vp6FSjowXK6orKiGl4zId+I+qlgtFmpA9nF1gAXziyGikVx8P2Sf5gD+3klB3sJpkRyO4OSc5dzFiuJa9VQsPHgIFDr3iAeAON21ABYFWDB3CQArRq7IK6pSw8Al/xikhnAfbmf6fgEh7BAuPeQYHlQMHHrRcvnab8yhxv0H/5A0af4RNxqprDVAhBvTOcDCC2Jd0qGzbUOieDXWsmioOzJaUmX3vuGYZUImNFISPaFi641bJVwcYOGli1pm+zibg3UbZ2IttLQWZsM9pF+9bmr0h4/ZINX9DgmBZeJApXSFWNAIKuNqAItmETo9WM4m8fGNQC4eZ2cJH7zAA4O6hIwVfjYfO9kLQvichu8x+qKZEbCeWbfcoSMZNQFzNpHS1kDNFiDSv4O04ryMAazHT3gDsJwXXzy8ihcmLSlxpgNfXswY3gEtLKusdYeGjHmvbtx2k7bvcj+K0DcioJG17njX8fGTG/VguaOavdL+4mVpLubAGHawvqhGPT3u57RGbjcdOlwVv0G7ZMU8DAekIZCI5xbDF49w/K4GsCgHq+83AAscFsHOZBNu76GqNW3KwSOGpTo56sr19kBb0XF6pxQvHY8yNKoxExmXAcIsNz980eFhIHDAEPHi67E/YyR3g+E3IGrzh+ReoVq8ou/AEUkCkDt3G6JR5o2OTv0mGtWwUdUYA1h379fG1zXJS1I9aXqCdperZxGCGx3mY9qe+Lg41ksGxYgk2WVtOj5PQzwm1LZBA3/PsCEk539K0VdqiipVt6clyYlIeADr1qyf5doAi3KwsFlOn2vHi2STwiURlDgMGzfPsD95imfrlxokwGWB8nGjhJVrGLi2j/jgEtdvorBcuVqKeYB1/FR5SSMfMaJiUpeDcvDws9Hv3mdlTKbBp9V9XuhgIZKvXtumC1rjm9RYwUNYGECYmQ8vZjyYoFX1zLh7L2P6ZKB8u5vkgcd1tt67X4cCLGf/zxjFauYuDLFcuprsep/2t+//VA4Z0VvRb9BuSBhYA4Kz/6ZovUeOW5fWwIlm9ryA/8NjyQr33SdyhpMAqC5WOtZ88bK3awMsKtPgzNYuivaaLw4GHCeE3c+bDhxqlGxP+J79NWSduh0QliqPa8CHDF20i7fJvEoViozKEWOOI4eGoIveYb19twFTY4YX/GpeACxEvvUaSx0fPiVprFTjJ/8JBNvHuIh8EBpVjZ14KNZgZERh3/7iFZKGZaS+DUMjoHn23hEpyEkB1rcXG+49SYMmHzTTZ823nL3QADgMBcEg5Jb37v8XSIfkh3NX0HLqjJdhU+gwWYeuByFz9BMQZOMj//k3XlilZjyArSYpepAdPtrKea7TRPagqGY9A5ByvwmJaxcsXorrmFY8cLB+L4xhh/6lAIsCLKDbZEQPNt7lfHkAIBUIkpwMstbtLxn3hg0Ab6s7cLtzyfsN+lPeZwAKbf8FNrCY5fTZrrCXw8W1nSoA8I18iezo1m4YTcx4QBHHaThR2EkJXIJQ4SHmuCCHWqOB4cHCoHDn1Z+6Q+ctXIgAluODAL0MJB0ETmFO5mPVQpIFtzF0rV28bAX+FgVYidYT918CxwjBKFxcCmkz33eYvZsgrOk811/PC3qeEHTU8rIp/Ps2TSHR/TcA1dI0INqJFz+Ckwh7xLNc32jT3b1Xn6BaNAHy7ewNOG4KsCjAwgZ3on9UmYoo18CrTF0g3yespbiBd5S0RZs3cGe+lfq0/JDg8XLeW3zyEIsqVjc4xNICxIyH9c69chDqMgpwgghtZOA9mOxPn1VjxNit3fA3LNwHDGtyvalMe/b3+imADZjrLaxSw4qHlcuxokqu9e79EoyA3P0H8oKrWkCK3I6HEefLdOxEG14ArI2biQAsAnP2o4eSE2DVs8LF3SSFACujasJkMmFhAuWVgBS8NrF0ys4CAEQ/M/BII25khR7VHLqFy3pSgEUBVoIX69mLXABePvKZC4njx7lzdr6OEx/xWDd5S/SnzxmJGhBZ916XSCJL/BDV5Om7GEwZn8GdV8gpH9DM96Pt4eO/fq439i6romefG5itySX/SjV2wl7GvFcrggOwdhOp8eJcybr6PbLevoM8I84bEDn/lHfzv0/umwl0AgDLmRjjz3zxcgIJKGUqxkHN1e9yQ7QLlqwmHmZhgIIgaeiNEiVFKcCiAOv/NijPtiR1Dgba0eOGRH3j7j0+xA0IxE77kXyVYkkeYYWqWsvlq40YEUl9/bawpHHzSBwzFxcHfo9m7oKpyZbECDvYHUN0XFwmTtFXK4i+MuJBBD0hd5B70OPlQ2p+EcgAEXt5Bn40FOX9DcicdynAgr188kxF4B7KMJOIz98padryQ5zVluX7YftF3eFMxODZ4LM8g6xdl1P/O3YKsCjAst26XQLuYE3K5452Qf5i8UCVOGk+dz47+Rf6y1eFxXUbi4htqFLl0YuFGYWnot+8YSTFHMh0U5EEigeZ7cri8m5+T+1PIv5I7lgdkVFuIM52AhcV54LFSw7nHTOpNjnefXBjhrM3bz1+B2G9J7Pl4pXafAFY9gePMkGl99MUYH31yGZSDht9iqQHmQHeJ+751Ul64U6cKin1biXke5gF7rhhFGBRgPV9L9aSpZEpiorQjnsOvVcgBI7zy06DWOQaNMakN45h2w4/ZjSxjNkVvfpfExRgEbQgz6VE2RjDxi0tftkwvf9QHkRSFV8v9VLspaCCt+Gl9cr1oszIepxsJKzkqSdY8RwBFqbNXsrAswY1J3dGlSzv6gDLWZtw9gw8y3zNJsQ7wXL5SqsffYO8a89DvBVNRXBSpoLdIZF+99xSgEUBFtQldYe7Xf7rvFDacc4UvfqdY9N+YFZYU1BoNeOmIkq29mr8Brw/+RnxLEQ8d5c2af4ZM4bYuDDQc6MLXjMtxeGV8CNdgRtiRYDCBrEdQIEe1OQZqQdpuXg5MwDaK6TnGr2SxoPhPfkGsJTDRk0WlquE+8DVARaW2fIS16iLdwUfL09UPn8HXLECP+YRrhoYVboCL9cTvwFS3C9Zr9/MQgEWBVhJNe38RXORq0dDhb8Weo8qX9kClWxqsWpAHCJxFjgMt0gaUNwIkQBS9EFrFjM0bOQ31QadHwFJdykeRiReawPmrUvlcFGHZwJe7HgwSHnenKGPWNPBI30ZTCwYgsRK4lXNgTsDwrR5eIavMHu1O/AIUbXe5QGW5czZzJKGPi+Ri8i7zKDcBeJBiHX9z5XpxUWE5ava+Aiw8BsM23ZO+NH4KcCiACtGqc4ha9f5FT5KKXhKHv5A26gLWg34g4MGKqv9nNo5RENAoG5uNB08XJ8xkBV+uCaIUkYS4Qb9l2oaB6TrZY4vAmZ4TPMXjxF6VLXgYpMIj8DFpQSE7s+YlMetO+5gUKUIgIiXBVm2MiADD5v9+YtCUDfLhJefqwMsbCBau5p3c4HjKVvJAcKBPZLzDSC4ehT3NO/WqEI1q2HLtsYUYFGA9bM1Nmze1g7mOiZtetY5EAf3avQC5IoKcmJEbA8e/inxafme9MsUgQVwIO4jj4qxsj+nz3oo+g2+gJMInpZUg0Tc5OjNw2wN476w4UzPtelgeDtJg6YCFD1kgguC44Vvx+LIj22PnjRgDli8zCbv2Sscx0mcL1a/idx0+EjFDDxt4CmNoAArQT+vMZ5jvoXWJN6tIm33HhZM5oNyRGSeQrwr7yPv0fuB9eKlXBRg/axTgOWUbQgS5CsST0HWT+6+itWtpmMnm3JqRIBZPwyBBfnLsHi8csz41YyW/lGqcmiXB00DlCrByzYlrlPc3KiRA2q5saoRY05DseqqxNL/P34uDtmFu0WedfSReQuj/EOKjApuHmHFanr1xKkrjbv3/c3ofti+a7Sz7hRxzphq1LgNGXjcdMuCAv8DFRRg2Z6/zAN8SlEUj3hYyG1U+PU9luxH2Zlz1aDgrBE1cfgEEsGztja530ABFgVYMRIZlqO5nUQEh/Zi/0kkgX7jDM6NCJCiC0pQtZqsIUEwgZkySDbrzPQ3gN5WSagDuFTq2/4jGm4Mm+EEf1tC5NuO/ztMPRdVq2VTjZl4RL92I2tEa1PYofrKUeN2Sbwa63CseMkmHiOOvez/jyUjgISsT1D1lUqbt9mkGj2+PuPzePFKAyTKkzai+D1QK89gOnKsJI/xFXpt6oAxxlI01IN17aYbSCFs5ptcg3HHnp7J/oabd7KDdMx5fNzwJn28So1o/dr1bSjASm6nAAubPnhtFbirFd/c1bQnlAqTd+m5x3QgPBsvDIl66ow5UWjkCRoSJHgjiINUU3H0x0+lSXyHdva8Eor+g7tqFy1dD+G4N1Hu5S1QDNeBGhjY4V/HRLl72CF7UiL373cGymiMUw4f7QlaPxm5mHd5t16VNTMCBqtGjj0CQE8MZHhrwlih49hh3qySuo0+qkaO22/YsrUP1JIsRyRcfPd+fqmPbwQbHhsElepps1Zn4HfDMPRfqOiOHl5XB1jY9BtC+gkKJ9wTnIMTMDBa+8PHvxRag1p/i3D/cf8NzizrOg1ksTr9HxRg/UqnAAub+ez5tsDtNfOMV8h9yL13/2tg0//mz0v9yvX8Ep9W70gvFIIsZ1r1PQjF5Sb5TRA2zKpbve5PUOWubr1+o471xs1aUALFSz1legmhR+Xs6onT3Himu5TNcvV6PqigXhvHCmOuDXyoGlDANhd+C8nfBgXsTOoxE8NYMTz/1UnUGXftdc+QBpph685x6IpHw+DiAAsJth7AeRLzQYsH6QBAvD9g3Lbzl86xcevOhqKaXkacGz6QcJWjxu9JyVpQgEUBFjaICPUHoB4DnZLawX7B/fTB8TmyGO8MiX5jyAhcJLYKsypHjt1jvXYjC/dfTpt2yYplbKkEgzcIDWOw+dwFNIy8b9GfvhSEQ4vFVl0eYEEtzqzg0TvPB+4HVlgwbA79ZVmSGLE0s9Sn1SsEN3wwCKbwo34UYKWwU4DlfPhsHRtVvDT+HdcFV2C/4Fy/sT98Up6XhsT2+Mnv4Fl6heCHjQ2FnCwI5S3h9KNpw4yUIRCaZOXiQ6OGIWLg/ZVOS3NkCN0++j+DXNaVAZZT6mDkLCHHgp24FpJGPjLdkuUeKZKcGDV+A+fGCI1q1Zpa6+27xSjASk2nAMt5R42DuY1zxXBhJDzapc1830Q/jijHb87JsZMdQfnUDgvFyqbC38GNwc3X0gak5b7A87Kx5V5G8A4VBKamtXkCeZEc8u7+99Dj4OIACzXSKgsrVrdxGTLFZA/FwKFH0aOWonvuxKkGXId8sUyZasyEI6BAn5UCrNR2CrCwAam7D2hO6lFix2UI7ci58u93Nfrl69L8NyQ6XXYoEXKSrSwbAHOYUhkDvIjR7H4pbca9YU2Bi6LBVHfWSpq06RgR/fb972lyvg6ENxJ9rctY0qUBVpzJ7AbG6C0aI+7q9lXEMPOoFD8sAuf/DkK6kXj/cPMN/4XKdcFrxzK1LhRgUYCFzXLjVivQ7/vkzKRPvyFBdApARx5mjEKZL80YEuvtO55QIkSHi87aRKEna8v28ax8IG1YbqipuG5DZyHq8mxcIBhec4AMRLs0DUp37hmDQBG/x1UBFjbdkhULuSrXgdQCcU0vvfXGrRS/WM1nzrtpAuZu4kpyAh814rqN9FDFoB4FWEx2CrCwaRcvK6PoN+iCAHiKaF8J3PGcdvwuiLyY1dMDAkz7DmRKg7ycJfOwhiCbGwy7IZQ8yKKeq/1NIStRzFa4Cy9eBHKK/oN2xsjlmdMBZy0YvQ/4Xa4KsCznLzXlypOHvyvr1P1ear8Bkiw6AliL5sLgIziF7ODbUIHhNwqwmO4UYGGzP4nICvVk50F2ugHvq/QSEsRvkXXq9sh69UbzNGtEIJ75j7RVu0csvlIRaeNGizGG7qCcLEJNM3n6QHHtBiqn54o9QnKT5iLbk4hi6WEOY6TyzNrA+etwDnHPuiLAMoSE/ivzbf+BC7kG/E0wHBNTL7B8tgQk9XxgPTsUgXmpcvFQ5mtZokFRgEUBFsPNsG5TfXmPXnfx28jvdYJJcTj2MhUcmumzgs1Hj+dL84YELrFGcCBsGOdk8xDgAYQQxFLTfiZdf7TBxTcW6iw62D5kaBC1i5cPTW/zqd+ydbKoSk0zvqgQrLoSwLLdf5hRPWnaNtZDbAhO3D1sIFRclonvgFJNh1j/huIARMpVirOcvVCfAizSnQIsbMBRyqldtGyqpGmLz4ICReOJ2nQCySDIuQRu+CWowlAvfaXwz1+8XFCQXeVmPIC40aEu4C6Y0FQiVdqi33/MoQtavRTQfzzbFwiAD8yUOggGOV2CZf2KVc1lQNzHTBa8wHkVNsSxAJgWVqsVDxmQPgx/OoKTfnDxxbFpMDGsreg/5DzsJ0Yy70CIeAB8Qwyr3wDGFPiPoliTJfE3UIBFARbBZjlzrqRm6oxl4toN1XiWsCYnA+tBTMYJH+dQu/eSbuESP/ubt5nTnQExHz+ZA2rfPXWGlNgFWYCyQV3+nv3VG4+UjZ424559RVTDxxyHUC9ma7LuuRLVafgZ9NVKpec5tkMRZPC4zhVVr6111sHkPLsGzyuUWooX1agrx4LVMMY/GE+UOHysLGQrSQWF2ONiRebKHw/lemYx9vh49aYwzJGWTcOKZ1EzK3B90qOiAIsCLLIN6u6WgFqGgaIaXgogi+NdjYkX3POrnJmPwkqeZni43oVM9w6mo8d/S9dG2nr9Vl1xDS81cGk4KNr4tayKwrj3QCcKl341FX1eY2nLNi8w44L1Sw1/z90jzrBzT3tXmW/r1esloa7lGuD1fMYLk9V6d/ggcRYNlzTw1svadTqrHDpqnP3l67+Ihp39+l5mjUALwBH1twy79zVmFJS073ID7zYWNbxQvb0jifWQtm5/lnOA1c1v/nfnuavfAJA54RZgNfd9LuvRK8d36BP5JI2bR3EKsKrXiYFx+LJ6Z91/mBfq4I6W+ra/iPcGngN8nLHpiRcULQ1nAiIAEAaEs/hW1qJNKGT51nMpYw2K66Nw0rnQjUGjAbIR0fK+A4OBe/GTAo60GTaEZDZs2jIFXid6nDv0PLIOjCEDVbtgcZBLzv+m0LLw+hoK+iwnYd9a8fJMAEGwHuj6dors4lwlaz7xf5vgNsdLEF+bzv8ODQdw63QQij2t6DtoNBQF9zLuC3NjxcN94nRHYdlKDhwbjoVYdwJImNPDUGcsB6Nhk9Pn24G3z8bON0A2rX/fm1Bv9G9C9/Rs3Bv4e2x3mD/klsWrJ04d812vyfqN9cV1Ghpw/3IxPqS6KPoPPq2ZuzBTYirMoj8AeN3D9eFibHgviBt6a2AcNTm5s0JCs8D94SXv2WcC0HKuCitWs8B6JoA/HJ8zCe3XwZdz7+M9hWufALCdd5q0cfMvmmmzQiVNWnSDuoolXNZwq6fN2ilgp15d4gLRuDiwGPIevR+ChITX90dIm/3Z8yrwCjqHh4GrNHo0hLK2nS6BEfnDpYFu6PYs8g5d85uPnegi9+uzFUIAjyAM8RmyOLUQTrSD4jK++JMjqomeGwBRtaLFdRpoISwnlNRv8krS0PsMXMjT7M9f1FUHzMsHBiwrNx7umw3BsE8BQD0VzuYUQn2adunyPpoFS3IS0v6rDyTgycA5nUbsG+YunK5bt3Fk9Os3uYhxbK7dyGnYsnWgdt6i6fibLHZc/2n6jZv7wDxmTzKsfDC8mQbXkuWx4TnRrVo73hCypXiSYbPNWz2AqzoJ/7csj2+qdsny6bBuzfRrN2Tk3JmyeHl2AFsFwSPfRjV05CpJg6b3JE1bfgFwrIE7yIHUA7TJeM9H5ikYj6Lk3+25CyKASri/4MFvgr+FIcnXoFBwWLssaJLl3IUa8q49/4Gfpc3xRZBH3tXvHmeaGk49JXAzW3UrV6/QzF+c/7+R0QYSCH+qxkycKvKsY8DXBldka/xtaYvWnyznL35HBJK2GKXybxArraOeM789AOFhcOHMgJfcCpi773Z4WKwAQnQAeG8HqWcEdDLu3lsn+t37wmyNlzbaaKMtRqXKZdx3oJZ6+qzOAI4mwj2/ArDAevWU6eGq0eMOq0aP/7aPGndEPXXmHrDVK8U16s7G+0sXvKYZlNmq8IOfoc105FhluPC/INDhVhOjBBYNfqVbvbaPafdeN1deE9Wosb6K3gPuI6jijKiILxrkyHhUtfJLAI422mijjTYy8g9yt+iXrzJGv3rt9k1/8TKlnjjaDNt3NxdW9rQhH4TLjAMMG6JgH8SMTxi27mjsausAruzKqpFj9gO4iUPuAKfptrAW4Aq2GkL+H3v3AB3ZtoQBeF+biM2xbdu2bdsWYnusJ0SP17YdtNM6IQb9qk6/zrWQ6dOZ/1urLsZCrb1r/5WyUPw6AAAAUHb6/CLHoK4CovN5uPK6af3mzIqcvE6igaNroja0ZyqW5nDMzo4EqBtW9Avlp+cHBQAAAPw21mMRexWx+Da4sfxt4ERmdYeuFsOUmX+m/K7etATybtFASEkpd1AD2ZbutlNVHbsZeYD9W0PsTp2L04+bkkCLa+8RAPDbAQBYDx8/yE/ylZJgzXNAXPztoWYku2TGnLn0ZN1fuKjKv+e6SYkp4+h5+qXikCbcSCpm/50jGM4wZ0Fu2elzaK5+LwAAALUffnyXadXaM3KTFSA3WYop+7cpjCMDPixZtiqqLOtMT+Ei6LVFW/34qYf04ya/LjdVHn7K22ru7ssLa3Ovm8xPCAAAAPh90ZP8+yg34zQ3AUrba+SY0eLrNFrTUElPRj+g1SEHtQOGdjQuX+MmFMK0ZedTFD3RWopN2Kru1vtdVasOZXz1qdQf0wJ3Pw7ty75ulR4U9QMAAAAqsnMfNK5ad/rb60GU1BQ4UmgdabKUtv2BeevOdG2fQStMW3b0qnrpZXdxk1xTqR+zRsW2p8iLeYZps+P0E6a+UxTalOeZ+NvJpdQfRz4Z5OYq57pFelzULwAAAKjIzbvfyNeFnv6OwXdFFzdanETL/02NTintY/qQEmfzdGMnRVEEwlLa2N/DtG6TB50k3UtJ3HeWLF/9s7M9KPr/Nv3UmXfSl3dPRW7+E9UvvtRVSkieTPu4Tmi69vqHbvSEd9Td+xqKm7S0FfAJm9fPCAdVwGvBAjcfnrnKvmax3qyVRQAAAFD136dvp9dkB3jD/s/YW6icUxnfkK+WXPIwOcf7N25xjf67ipokA6XXvkqnTP80rtmQxkWrKI6VpqavclRZetYyWhVxhE7xMozrNycZZs79q3bIiFeKW3VQcz4UrRe4xmtR+JSKM6Ps15bBim+qHFX4/xM1Wmb8l2sWyRkrcAAAAECKiNktn2LZt5O7Wn3vIlO5CfMOlIubsUJ3v6+VLy9y5Y/79mLMr5dr/ljIga6N5SgGetSA5sqZAAAAys5dXKhq2a7qN6/VQTlv/Y1PECe037Ds2re5ZPGKOwQAAAAoIXX87AB1l14F8mu44MZoWlyoeJZO1aqjpSwtY4ZQFgAAALBGRDelge+n+RrNBYbfUQFh8jWnpveAz6pffLmbUCYAAACoeeOtx8zbdiUVhTXlv7wVepqF4tkxvhY0zJj7J+PKdd5C+QAAAMC8Y/cCikTQYS5LmbEVxS3a1UhxSVso9f5O4ToAAACg8j9Pt6SsqeeUsbAYVcixEW6+Nu3wMe+WLFrWV7gmAAAAMG3adrdx3ab96g5dJSedZqGC7YPsFHZaa96xJ7ny7zluwvUBAACA9ejJnpqBw57lJusm7txDyQuk/W3aQcM/kI5HjBUNCwAAAEjRcQ9LJyK3qVq2N9W9NAyur+YCjRWn7FM6faV5++6TV7/40kM0XAAAAGA9HtGMdv9dLg5vfoNPV9AQ1cMQO+0+1A0fk1d+6Uo3AQAAALfUidYw/fgpL8uRAX4huDr8jSt/+MSKfyxpn+JHhmmzpklxiXeLWw8AAABIEdEPSFExcyns8i060eLlyL9ilx+S2IuosdJ0610kRcaur3rhxUcEAAAAQGlq+n0ly1av0I2b/FqhfwhdcwWj0fqRciymLnjK26YdOOxzunLdXfX0s17i2wAAAABKE5LcLHv2zdAOG/1WUUhTG7865GsvNFX2qrtODWli0/To9zldA64vyzodKH4aAAAAINbhxN3lZy+M1k2Ykk+J8JIcVuodeEuHhBY84WWjPLEaTY++z0iRMXNof+AD4tcAAAAAMO/c28swbeYR3dDRnxe4+9njHfyoAsIa9hWgX0jdzkBNz35a8+YdcZb9h4aI3wsAAACAFJPgVZmdN0o/fvJfVa07GoubtOIQTb5G5IakgbwEDLTHLDRqYVO17SQZpszMsxw8MsswcaqfAAAAAKhP1a+/4UYreBbop8y4QvNan8kD30948YmPa17/ufnIDZZ2yEiVulP3v+gnTttc8867jYUzAAAAAEhxCaHmfYfGW09EHtWNHPdGUXBjvkasO9WSXyTac7acf+XnE8TfNv4w/vbI/63tP+Rjy/7DcbrhY6dQzEJzoSQAAAAAJTPnPSglpYWXX7w00zB7fkJx45ava7r2Uqnada6gtTHc4NhPujz9Hc1Ovayp4S+bvw6OUeCyX/l1rqQBdZ26XZd3tcPHnC87fXaRftL0cN2YCcitAgAAANdS9Z+n/a3HTw7UjZ6wWNOrf4Rp07Zz+glTX6WTo0JVuy7VfOIlN15uPhx0ynNQdSU3YX4hdYP19uYp+Jufhj+Pux9/fm6weHaqVtN3kIqap5eMy1f/2bhsVbSme59NlsPHBtW88WaYaIgAAAAAStMy3UzrN4fQSVJbOmnqY1y0fBzt7VshRcduMa7flGRcsyGVZrxSjEtXnaEZr5e0Q0a8oh068mXNoGGvG+Yu/KNpw5ZE49qNKVxSVOzW0rSMVeUXr4wvDm/RRzt4eDvjqvVhpafPPlH74Yd3/q8dOCYAAABAGGT/1NbYASsCAAAAAAAAAAAAAAAAAAAAAAAAAAAAAAAAAAAAAAAAADjK1M3IQgjYXAAAAABJRU5ErkJggg==;" vertex="1" parent="1">
          <mxGeometry x="110" y="202.75" width="120" height="40" as="geometry" />
        </mxCell>
        <mxCell id="rEjrWsLnKbSGSk9dJPLd-16" style="edgeStyle=orthogonalEdgeStyle;rounded=0;orthogonalLoop=1;jettySize=auto;html=1;startArrow=classic;startFill=1;" edge="1" parent="1" source="rEjrWsLnKbSGSk9dJPLd-2" target="rEjrWsLnKbSGSk9dJPLd-7">
          <mxGeometry relative="1" as="geometry" />
        </mxCell>
        <mxCell id="rEjrWsLnKbSGSk9dJPLd-24" style="rounded=0;orthogonalLoop=1;jettySize=auto;html=1;startArrow=classic;startFill=1;" edge="1" parent="1" source="rEjrWsLnKbSGSk9dJPLd-2" target="rEjrWsLnKbSGSk9dJPLd-5">
          <mxGeometry relative="1" as="geometry" />
        </mxCell>
        <mxCell id="rEjrWsLnKbSGSk9dJPLd-25" style="edgeStyle=orthogonalEdgeStyle;rounded=0;orthogonalLoop=1;jettySize=auto;html=1;startArrow=classic;startFill=1;" edge="1" parent="1" source="rEjrWsLnKbSGSk9dJPLd-2" target="rEjrWsLnKbSGSk9dJPLd-4">
          <mxGeometry relative="1" as="geometry" />
        </mxCell>
        <mxCell id="rEjrWsLnKbSGSk9dJPLd-2" value="&lt;b&gt;Api Gateway&lt;/b&gt;" style="sketch=0;points=[[0,0,0],[0.25,0,0],[0.5,0,0],[0.75,0,0],[1,0,0],[0,1,0],[0.25,1,0],[0.5,1,0],[0.75,1,0],[1,1,0],[0,0.25,0],[0,0.5,0],[0,0.75,0],[1,0.25,0],[1,0.5,0],[1,0.75,0]];outlineConnect=0;fontColor=#232F3E;fillColor=#E7157B;strokeColor=#ffffff;dashed=0;verticalLabelPosition=bottom;verticalAlign=top;align=center;html=1;fontSize=12;fontStyle=0;aspect=fixed;shape=mxgraph.aws4.resourceIcon;resIcon=mxgraph.aws4.api_gateway;" vertex="1" parent="1">
          <mxGeometry x="277.25" y="155.5" width="134.5" height="134.5" as="geometry" />
        </mxCell>
        <mxCell id="rEjrWsLnKbSGSk9dJPLd-31" style="edgeStyle=orthogonalEdgeStyle;rounded=0;orthogonalLoop=1;jettySize=auto;html=1;entryX=0;entryY=0.5;entryDx=0;entryDy=0;startArrow=classic;startFill=1;" edge="1" parent="1" source="rEjrWsLnKbSGSk9dJPLd-3" target="rEjrWsLnKbSGSk9dJPLd-1">
          <mxGeometry relative="1" as="geometry" />
        </mxCell>
        <mxCell id="rEjrWsLnKbSGSk9dJPLd-3" value="" style="shape=image;html=1;verticalAlign=top;verticalLabelPosition=bottom;labelBackgroundColor=#ffffff;imageAspect=0;aspect=fixed;image=https://cdn3.iconfinder.com/data/icons/2018-social-media-logotypes/1000/2018_social_media_popular_app_logo-whatsapp-128.png" vertex="1" parent="1">
          <mxGeometry x="20" y="202.75" width="40" height="40" as="geometry" />
        </mxCell>
        <mxCell id="rEjrWsLnKbSGSk9dJPLd-4" value="&lt;b&gt;Restaurant_menu&lt;/b&gt;" style="sketch=0;points=[[0,0,0],[0.25,0,0],[0.5,0,0],[0.75,0,0],[1,0,0],[0,1,0],[0.25,1,0],[0.5,1,0],[0.75,1,0],[1,1,0],[0,0.25,0],[0,0.5,0],[0,0.75,0],[1,0.25,0],[1,0.5,0],[1,0.75,0]];outlineConnect=0;fontColor=#232F3E;fillColor=#ED7100;strokeColor=#ffffff;dashed=0;verticalLabelPosition=bottom;verticalAlign=top;align=center;html=1;fontSize=12;fontStyle=0;aspect=fixed;shape=mxgraph.aws4.resourceIcon;resIcon=mxgraph.aws4.lambda;" vertex="1" parent="1">
          <mxGeometry x="500" y="193.25" width="59" height="59" as="geometry" />
        </mxCell>
        <mxCell id="rEjrWsLnKbSGSk9dJPLd-17" style="rounded=0;orthogonalLoop=1;jettySize=auto;html=1;startArrow=classic;startFill=1;" edge="1" parent="1" source="rEjrWsLnKbSGSk9dJPLd-5" target="rEjrWsLnKbSGSk9dJPLd-9">
          <mxGeometry relative="1" as="geometry" />
        </mxCell>
        <mxCell id="rEjrWsLnKbSGSk9dJPLd-5" value="&lt;b&gt;BOT&lt;/b&gt;" style="sketch=0;points=[[0,0,0],[0.25,0,0],[0.5,0,0],[0.75,0,0],[1,0,0],[0,1,0],[0.25,1,0],[0.5,1,0],[0.75,1,0],[1,1,0],[0,0.25,0],[0,0.5,0],[0,0.75,0],[1,0.25,0],[1,0.5,0],[1,0.75,0]];outlineConnect=0;fontColor=#232F3E;fillColor=#ED7100;strokeColor=#ffffff;dashed=0;verticalLabelPosition=bottom;verticalAlign=top;align=center;html=1;fontSize=12;fontStyle=0;aspect=fixed;shape=mxgraph.aws4.resourceIcon;resIcon=mxgraph.aws4.lambda;" vertex="1" parent="1">
          <mxGeometry x="500" y="96.5" width="59" height="59" as="geometry" />
        </mxCell>
        <mxCell id="rEjrWsLnKbSGSk9dJPLd-6" value="&lt;b&gt;Users&lt;/b&gt;" style="sketch=0;points=[[0,0,0],[0.25,0,0],[0.5,0,0],[0.75,0,0],[1,0,0],[0,1,0],[0.25,1,0],[0.5,1,0],[0.75,1,0],[1,1,0],[0,0.25,0],[0,0.5,0],[0,0.75,0],[1,0.25,0],[1,0.5,0],[1,0.75,0]];outlineConnect=0;fontColor=#232F3E;fillColor=#ED7100;strokeColor=#ffffff;dashed=0;verticalLabelPosition=bottom;verticalAlign=top;align=center;html=1;fontSize=12;fontStyle=0;aspect=fixed;shape=mxgraph.aws4.resourceIcon;resIcon=mxgraph.aws4.lambda;" vertex="1" parent="1">
          <mxGeometry x="500" y="290" width="59" height="59" as="geometry" />
        </mxCell>
        <mxCell id="rEjrWsLnKbSGSk9dJPLd-7" value="&lt;b&gt;Authorizer&lt;/b&gt;" style="sketch=0;points=[[0,0,0],[0.25,0,0],[0.5,0,0],[0.75,0,0],[1,0,0],[0,1,0],[0.25,1,0],[0.5,1,0],[0.75,1,0],[1,1,0],[0,0.25,0],[0,0.5,0],[0,0.75,0],[1,0.25,0],[1,0.5,0],[1,0.75,0]];outlineConnect=0;fontColor=#232F3E;fillColor=#ED7100;strokeColor=#ffffff;dashed=0;verticalLabelPosition=bottom;verticalAlign=top;align=center;html=1;fontSize=12;fontStyle=0;aspect=fixed;shape=mxgraph.aws4.resourceIcon;resIcon=mxgraph.aws4.lambda;" vertex="1" parent="1">
          <mxGeometry x="315" y="50" width="59" height="59" as="geometry" />
        </mxCell>
        <mxCell id="rEjrWsLnKbSGSk9dJPLd-8" value="&lt;b&gt;PostgreSQL&lt;/b&gt;" style="sketch=0;points=[[0,0,0],[0.25,0,0],[0.5,0,0],[0.75,0,0],[1,0,0],[0,1,0],[0.25,1,0],[0.5,1,0],[0.75,1,0],[1,1,0],[0,0.25,0],[0,0.5,0],[0,0.75,0],[1,0.25,0],[1,0.5,0],[1,0.75,0]];outlineConnect=0;fontColor=#232F3E;fillColor=#C925D1;strokeColor=#ffffff;dashed=0;verticalLabelPosition=bottom;verticalAlign=top;align=center;html=1;fontSize=12;fontStyle=0;aspect=fixed;shape=mxgraph.aws4.resourceIcon;resIcon=mxgraph.aws4.rds;" vertex="1" parent="1">
          <mxGeometry x="690" y="172.75" width="100" height="100" as="geometry" />
        </mxCell>
        <mxCell id="rEjrWsLnKbSGSk9dJPLd-9" value="&lt;b&gt;OpenAI&lt;/b&gt;" style="image;aspect=fixed;html=1;points=[];align=center;fontSize=12;image=img/lib/azure2/ai_machine_learning/Azure_OpenAI.svg;" vertex="1" parent="1">
          <mxGeometry x="718" y="77.95" width="50" height="50" as="geometry" />
        </mxCell>
        <mxCell id="rEjrWsLnKbSGSk9dJPLd-10" value="&lt;b&gt;S3_menu_files&lt;/b&gt;" style="sketch=0;points=[[0,0,0],[0.25,0,0],[0.5,0,0],[0.75,0,0],[1,0,0],[0,1,0],[0.25,1,0],[0.5,1,0],[0.75,1,0],[1,1,0],[0,0.25,0],[0,0.5,0],[0,0.75,0],[1,0.25,0],[1,0.5,0],[1,0.75,0]];outlineConnect=0;fontColor=#232F3E;fillColor=#7AA116;strokeColor=#ffffff;dashed=0;verticalLabelPosition=bottom;verticalAlign=top;align=center;html=1;fontSize=12;fontStyle=0;aspect=fixed;shape=mxgraph.aws4.resourceIcon;resIcon=mxgraph.aws4.s3;" vertex="1" parent="1">
          <mxGeometry x="713" y="340" width="60" height="60" as="geometry" />
        </mxCell>
        <mxCell id="rEjrWsLnKbSGSk9dJPLd-29" style="edgeStyle=orthogonalEdgeStyle;rounded=0;orthogonalLoop=1;jettySize=auto;html=1;startArrow=classic;startFill=1;" edge="1" parent="1" source="rEjrWsLnKbSGSk9dJPLd-11" target="rEjrWsLnKbSGSk9dJPLd-2">
          <mxGeometry relative="1" as="geometry" />
        </mxCell>
        <mxCell id="rEjrWsLnKbSGSk9dJPLd-11" value="&lt;b&gt;App&lt;/b&gt;" style="sketch=0;outlineConnect=0;fontColor=#232F3E;gradientColor=none;fillColor=#232F3D;strokeColor=none;dashed=0;verticalLabelPosition=bottom;verticalAlign=top;align=center;html=1;fontSize=12;fontStyle=0;aspect=fixed;pointerEvents=1;shape=mxgraph.aws4.mobile_client;" vertex="1" parent="1">
          <mxGeometry x="324" y="349" width="41" height="78" as="geometry" />
        </mxCell>
        <mxCell id="rEjrWsLnKbSGSk9dJPLd-30" style="edgeStyle=orthogonalEdgeStyle;rounded=0;orthogonalLoop=1;jettySize=auto;html=1;entryX=0;entryY=0.5;entryDx=0;entryDy=0;startArrow=classic;startFill=1;" edge="1" parent="1" source="rEjrWsLnKbSGSk9dJPLd-12" target="rEjrWsLnKbSGSk9dJPLd-3">
          <mxGeometry relative="1" as="geometry" />
        </mxCell>
        <mxCell id="rEjrWsLnKbSGSk9dJPLd-12" value="&lt;b&gt;Client&lt;/b&gt;" style="sketch=0;outlineConnect=0;fontColor=#232F3E;gradientColor=none;fillColor=#232F3D;strokeColor=none;dashed=0;verticalLabelPosition=bottom;verticalAlign=top;align=center;html=1;fontSize=12;fontStyle=0;aspect=fixed;pointerEvents=1;shape=mxgraph.aws4.user;" vertex="1" parent="1">
          <mxGeometry x="-90" y="193.25" width="59" height="59" as="geometry" />
        </mxCell>
        <mxCell id="rEjrWsLnKbSGSk9dJPLd-13" value="" style="sketch=0;pointerEvents=1;shadow=0;dashed=0;html=1;strokeColor=none;fillColor=#505050;labelPosition=center;verticalLabelPosition=bottom;verticalAlign=top;outlineConnect=0;align=center;shape=mxgraph.office.security.lock_protected;" vertex="1" parent="1">
          <mxGeometry x="346" y="72" width="28" height="37" as="geometry" />
        </mxCell>
        <mxCell id="rEjrWsLnKbSGSk9dJPLd-14" value="" style="verticalLabelPosition=bottom;aspect=fixed;html=1;shape=mxgraph.salesforce.bots;fillColor=default;" vertex="1" parent="1">
          <mxGeometry x="530" y="127.95" width="29" height="27.55" as="geometry" />
        </mxCell>
        <mxCell id="rEjrWsLnKbSGSk9dJPLd-28" style="edgeStyle=orthogonalEdgeStyle;rounded=0;orthogonalLoop=1;jettySize=auto;html=1;startArrow=classic;startFill=1;" edge="1" parent="1" source="rEjrWsLnKbSGSk9dJPLd-15" target="rEjrWsLnKbSGSk9dJPLd-11">
          <mxGeometry relative="1" as="geometry" />
        </mxCell>
        <mxCell id="rEjrWsLnKbSGSk9dJPLd-15" value="&lt;b&gt;User&lt;/b&gt;" style="sketch=0;outlineConnect=0;fontColor=#232F3E;gradientColor=none;fillColor=#232F3D;strokeColor=none;dashed=0;verticalLabelPosition=bottom;verticalAlign=top;align=center;html=1;fontSize=12;fontStyle=0;aspect=fixed;pointerEvents=1;shape=mxgraph.aws4.user;" vertex="1" parent="1">
          <mxGeometry x="315" y="491" width="59" height="59" as="geometry" />
        </mxCell>
        <mxCell id="rEjrWsLnKbSGSk9dJPLd-18" style="rounded=0;orthogonalLoop=1;jettySize=auto;html=1;entryX=-0.007;entryY=0.6;entryDx=0;entryDy=0;entryPerimeter=0;startArrow=classic;startFill=1;" edge="1" parent="1" source="rEjrWsLnKbSGSk9dJPLd-4" target="rEjrWsLnKbSGSk9dJPLd-9">
          <mxGeometry relative="1" as="geometry" />
        </mxCell>
        <mxCell id="rEjrWsLnKbSGSk9dJPLd-19" style="rounded=0;orthogonalLoop=1;jettySize=auto;html=1;entryX=0;entryY=0.5;entryDx=0;entryDy=0;entryPerimeter=0;startArrow=classic;startFill=1;" edge="1" parent="1" source="rEjrWsLnKbSGSk9dJPLd-5" target="rEjrWsLnKbSGSk9dJPLd-8">
          <mxGeometry relative="1" as="geometry" />
        </mxCell>
        <mxCell id="rEjrWsLnKbSGSk9dJPLd-20" style="rounded=0;orthogonalLoop=1;jettySize=auto;html=1;entryX=0;entryY=0.5;entryDx=0;entryDy=0;entryPerimeter=0;startArrow=classic;startFill=1;" edge="1" parent="1" target="rEjrWsLnKbSGSk9dJPLd-10">
          <mxGeometry relative="1" as="geometry">
            <mxPoint x="560" y="240" as="sourcePoint" />
          </mxGeometry>
        </mxCell>
        <mxCell id="rEjrWsLnKbSGSk9dJPLd-22" style="edgeStyle=orthogonalEdgeStyle;rounded=0;orthogonalLoop=1;jettySize=auto;html=1;entryX=0;entryY=0.5;entryDx=0;entryDy=0;entryPerimeter=0;startArrow=classic;startFill=1;" edge="1" parent="1" source="rEjrWsLnKbSGSk9dJPLd-4" target="rEjrWsLnKbSGSk9dJPLd-8">
          <mxGeometry relative="1" as="geometry" />
        </mxCell>
        <mxCell id="rEjrWsLnKbSGSk9dJPLd-23" style="rounded=0;orthogonalLoop=1;jettySize=auto;html=1;entryX=0;entryY=0.5;entryDx=0;entryDy=0;entryPerimeter=0;startArrow=classic;startFill=1;" edge="1" parent="1" source="rEjrWsLnKbSGSk9dJPLd-6" target="rEjrWsLnKbSGSk9dJPLd-8">
          <mxGeometry relative="1" as="geometry" />
        </mxCell>
        <mxCell id="rEjrWsLnKbSGSk9dJPLd-26" style="rounded=0;orthogonalLoop=1;jettySize=auto;html=1;entryX=0;entryY=0.5;entryDx=0;entryDy=0;entryPerimeter=0;startArrow=classic;startFill=1;" edge="1" parent="1" source="rEjrWsLnKbSGSk9dJPLd-2" target="rEjrWsLnKbSGSk9dJPLd-6">
          <mxGeometry relative="1" as="geometry" />
        </mxCell>
        <mxCell id="rEjrWsLnKbSGSk9dJPLd-27" value="" style="shape=image;html=1;verticalAlign=top;verticalLabelPosition=bottom;labelBackgroundColor=#ffffff;imageAspect=0;aspect=fixed;image=https://cdn1.iconfinder.com/data/icons/unicons-line-vol-5/24/react-128.png" vertex="1" parent="1">
          <mxGeometry x="329.5" y="373" width="30" height="30" as="geometry" />
        </mxCell>
      </root>
    </mxGraphModel>
  </diagram>
</mxfile>
